<svg width="48" height="48" viewBox="0 0 48 48" fill="none" xmlns="http://www.w3.org/2000/svg">
<g id="3d-accept 1" clip-path="url(#clip0_10_512)">
<g id="Group">
<g id="Group_2">
<path id="Vector" d="M44.4392 42.4687C37.0641 49.8438 25.1066 49.8438 17.7316 42.4687L5.53133 30.2684C-1.8437 22.8934 -1.8437 10.9358 5.53133 3.56079L19.5201 17.5496L16.6067 20.4631C15.1911 21.8787 15.1911 24.1738 16.6067 25.5894L22.4106 31.3934C23.8263 32.809 26.1214 32.809 27.537 31.3934L30.4505 28.4799L44.4392 42.4687Z" fill="url(#paint0_linear_10_512)"/>
<g id="Group_3">
<path id="Vector_2" d="M13.2786 23.7914C11.863 25.207 11.863 27.5021 13.2786 28.9177L19.0825 34.7217C20.4982 36.1373 22.7933 36.1372 24.2089 34.7217L27.5371 31.3934C26.1215 32.8091 23.8264 32.8091 22.4108 31.3934L16.6068 25.5895C15.1912 24.1739 15.1912 21.8788 16.6068 20.4631L13.2786 23.7914Z" fill="url(#paint1_linear_10_512)"/>
</g>
<path id="Vector_3" d="M25.0349 32.4536C24.0869 32.4695 23.134 32.1167 22.4106 31.3934L16.6067 25.5894C15.8833 24.866 15.5305 23.9131 15.5465 22.9652L1.68618 9.10498C-1.47235 16.064 -0.191447 24.5456 5.53133 30.2684L17.7316 42.4686C23.4543 48.1913 31.9359 49.4722 38.895 46.3138L25.0349 32.4536Z" fill="url(#paint2_linear_10_512)"/>
<path id="Vector_4" d="M27.5372 31.3933C26.1216 32.8089 23.8265 32.8089 22.4108 31.3933L19.5088 28.4913L11.6317 36.3684L17.7319 42.4685C25.1069 49.8436 37.0644 49.8436 44.4395 42.4685L30.4507 28.4797L27.5372 31.3933Z" fill="url(#paint3_linear_10_512)"/>
<path id="Vector_5" d="M12.6398 17.5494L5.53106 10.4406C3.63113 8.54064 3.63113 5.46029 5.53106 3.56045C7.431 1.66051 10.5113 1.66051 12.4112 3.56045L19.52 10.6692C21.4199 12.5692 21.4199 15.6495 19.52 17.5494C17.6201 19.4493 14.5398 19.4493 12.6398 17.5494Z" fill="url(#paint4_linear_10_512)"/>
<g id="Group_4">
<path id="Vector_6" d="M13.4949 15.9327L7.14751 9.58538C5.78945 8.22732 5.78945 6.02541 7.14751 4.66735C8.50558 3.30929 10.7075 3.30929 12.0655 4.66735L18.4129 11.0147C19.771 12.3728 19.771 14.5747 18.4129 15.9327C17.0547 17.2908 14.8529 17.2908 13.4949 15.9327Z" fill="url(#paint5_linear_10_512)"/>
<path id="Vector_7" d="M18.4128 11.0147L12.0654 4.66735C10.7074 3.30929 8.50547 3.30929 7.14741 4.66735C6.99422 4.82054 6.85932 4.98488 6.74063 5.1571C8.09532 4.22401 9.96394 4.35891 11.1688 5.56388L17.5162 11.9112C18.721 13.1161 18.856 14.9847 17.9229 16.3394C18.0952 16.2208 18.2595 16.0858 18.4127 15.9326C19.7709 14.5747 19.7708 12.3728 18.4128 11.0147Z" fill="url(#paint6_linear_10_512)"/>
</g>
<path id="Vector_8" d="M37.5591 42.4687L30.4503 35.3599C28.5503 33.4599 28.5503 30.3796 30.4503 28.4798C32.3502 26.5798 35.4306 26.5798 37.3304 28.4798L44.4392 35.5885C46.3391 37.4885 46.3391 40.5688 44.4392 42.4687C42.5393 44.3685 39.459 44.3685 37.5591 42.4687Z" fill="url(#paint7_linear_10_512)"/>
<g id="Group_5">
<path id="Vector_9" d="M38.4148 40.852L32.0674 34.5047C30.7094 33.1466 30.7094 30.9447 32.0674 29.5867C33.4255 28.2286 35.6274 28.2286 36.9855 29.5867L43.3328 35.934C44.6909 37.2921 44.6909 39.494 43.3328 40.852C41.9747 42.2101 39.7728 42.2101 38.4148 40.852Z" fill="url(#paint8_linear_10_512)"/>
<path id="Vector_10" d="M43.3327 35.934L36.9854 29.5867C35.6273 28.2286 33.4254 28.2286 32.0673 29.5867C31.9141 29.7398 31.7792 29.9042 31.6606 30.0764C33.0152 29.1433 34.8839 29.2782 36.0887 30.4832L42.4361 36.8305C43.641 38.0354 43.776 39.904 42.8429 41.2587C43.0151 41.1401 43.1794 41.0051 43.3326 40.8519C44.6908 39.494 44.6908 37.2921 43.3327 35.934Z" fill="url(#paint9_linear_10_512)"/>
</g>
<path id="Vector_11" d="M44.439 42.4687C46.339 40.5687 46.339 37.4884 44.439 35.5885L38.7758 29.9253L22.6729 46.028C29.7394 49.5437 38.55 48.3576 44.439 42.4687Z" fill="url(#paint10_linear_10_512)"/>
</g>
<g id="Group_6">
<path id="Vector_12" d="M34.3755 22.2708C33.9145 20.1528 32.8575 18.22 31.3187 16.6812C29.7799 15.1423 27.8471 14.0853 25.7291 13.6242C24.9216 13.4486 24.1246 13.9606 23.9488 14.768C23.7731 15.5754 24.2852 16.3723 25.0925 16.5483C26.6489 16.8871 28.0702 17.6648 29.2026 18.7972C30.3351 19.9296 31.1126 21.3508 31.4515 22.9074C31.5148 23.1981 31.6586 23.4504 31.8544 23.6462C32.2025 23.9943 32.715 24.1636 33.2317 24.051C34.0392 23.8753 34.5513 23.0783 34.3755 22.2708Z" fill="url(#paint11_linear_10_512)"/>
<path id="Vector_13" d="M40.8563 20.9482C40.1359 17.558 38.4548 14.4656 35.9946 12.0056C33.5344 9.54536 30.4422 7.86424 27.052 7.14386C26.0128 6.92299 24.9913 7.58646 24.7704 8.62577C24.5496 9.66499 25.2132 10.6865 26.2523 10.9073C28.9131 11.4727 31.3411 12.7932 33.2741 14.7261C35.2069 16.6589 36.5275 19.0871 37.0929 21.7478C37.173 22.1253 37.3589 22.4531 37.6128 22.7071C38.058 23.1523 38.7127 23.3703 39.3744 23.2297C40.4137 23.0089 41.0772 21.9874 40.8563 20.9482Z" fill="url(#paint12_linear_10_512)"/>
<path id="Vector_14" d="M47.949 19.4978C46.9451 14.7162 44.581 10.3556 41.1125 6.88708C37.644 3.41862 33.2834 1.05462 28.5018 0.0505531C27.231 -0.216353 25.9844 0.597584 25.7176 1.86837C25.4507 3.13915 26.2647 4.38574 27.5354 4.65255C31.4211 5.46846 34.9662 7.39099 37.7873 10.2121C40.6084 13.0332 42.5309 16.5783 43.3469 20.464C43.4442 20.9276 43.6719 21.3303 43.9836 21.642C44.5263 22.1847 45.3239 22.4514 46.131 22.2819C47.402 22.0152 48.216 20.7686 47.949 19.4978Z" fill="url(#paint13_linear_10_512)"/>
</g>
</g>
</g>
<defs>
<linearGradient id="paint0_linear_10_512" x1="20.0812" y1="27.9138" x2="10.9951" y2="36.9999" gradientUnits="userSpaceOnUse">
<stop stop-color="#BBEC6C"/>
<stop offset="1" stop-color="#81B823"/>
</linearGradient>
<linearGradient id="paint1_linear_10_512" x1="16.2371" y1="31.7581" x2="20.3399" y2="27.6553" gradientUnits="userSpaceOnUse">
<stop stop-color="#BBEC6C"/>
<stop offset="1" stop-color="#81B823"/>
</linearGradient>
<linearGradient id="paint2_linear_10_512" x1="14.8737" y1="33.1212" x2="10.5981" y2="37.3968" gradientUnits="userSpaceOnUse">
<stop stop-color="#026841" stop-opacity="0"/>
<stop offset="0.2391" stop-color="#0A6644" stop-opacity="0.239"/>
<stop offset="0.6113" stop-color="#20604D" stop-opacity="0.611"/>
<stop offset="1" stop-color="#3E5959"/>
</linearGradient>
<linearGradient id="paint3_linear_10_512" x1="28.0926" y1="40.9972" x2="28.4198" y2="49.94" gradientUnits="userSpaceOnUse">
<stop stop-color="#026841" stop-opacity="0"/>
<stop offset="0.2391" stop-color="#0A6644" stop-opacity="0.239"/>
<stop offset="0.6113" stop-color="#20604D" stop-opacity="0.611"/>
<stop offset="1" stop-color="#3E5959"/>
</linearGradient>
<linearGradient id="paint4_linear_10_512" x1="15.5266" y1="7.55252" x2="8.17314" y2="14.906" gradientUnits="userSpaceOnUse">
<stop stop-color="#BBEC6C"/>
<stop offset="1" stop-color="#81B823"/>
</linearGradient>
<linearGradient id="paint5_linear_10_512" x1="15.3389" y1="7.73989" x2="4.95104" y2="18.1278" gradientUnits="userSpaceOnUse">
<stop stop-color="#026841" stop-opacity="0"/>
<stop offset="0.2391" stop-color="#0A6644" stop-opacity="0.239"/>
<stop offset="0.6113" stop-color="#20604D" stop-opacity="0.611"/>
<stop offset="1" stop-color="#3E5959"/>
</linearGradient>
<linearGradient id="paint6_linear_10_512" x1="17.1384" y1="5.94042" x2="9.58582" y2="13.493" gradientUnits="userSpaceOnUse">
<stop stop-color="#026841" stop-opacity="0"/>
<stop offset="0.2391" stop-color="#0A6644" stop-opacity="0.239"/>
<stop offset="0.6113" stop-color="#20604D" stop-opacity="0.611"/>
<stop offset="1" stop-color="#3E5959"/>
</linearGradient>
<linearGradient id="paint7_linear_10_512" x1="40.4422" y1="32.468" x2="33.0887" y2="39.8215" gradientUnits="userSpaceOnUse">
<stop stop-color="#BBEC6C"/>
<stop offset="1" stop-color="#81B823"/>
</linearGradient>
<linearGradient id="paint8_linear_10_512" x1="40.2551" y1="32.6555" x2="29.8673" y2="43.0434" gradientUnits="userSpaceOnUse">
<stop stop-color="#026841" stop-opacity="0"/>
<stop offset="0.2391" stop-color="#0A6644" stop-opacity="0.239"/>
<stop offset="0.6113" stop-color="#20604D" stop-opacity="0.611"/>
<stop offset="1" stop-color="#3E5959"/>
</linearGradient>
<linearGradient id="paint9_linear_10_512" x1="42.0546" y1="30.856" x2="34.502" y2="38.4086" gradientUnits="userSpaceOnUse">
<stop stop-color="#026841" stop-opacity="0"/>
<stop offset="0.2391" stop-color="#0A6644" stop-opacity="0.239"/>
<stop offset="0.6113" stop-color="#20604D" stop-opacity="0.611"/>
<stop offset="1" stop-color="#3E5959"/>
</linearGradient>
<linearGradient id="paint10_linear_10_512" x1="36.0959" y1="44.149" x2="38.7133" y2="47.6389" gradientUnits="userSpaceOnUse">
<stop stop-color="#026841" stop-opacity="0"/>
<stop offset="0.2391" stop-color="#0A6644" stop-opacity="0.239"/>
<stop offset="0.6113" stop-color="#20604D" stop-opacity="0.611"/>
<stop offset="1" stop-color="#3E5959"/>
</linearGradient>
<linearGradient id="paint11_linear_10_512" x1="29.1794" y1="18.8176" x2="30.9789" y2="17.0181" gradientUnits="userSpaceOnUse">
<stop stop-color="#FEF0AE"/>
<stop offset="1" stop-color="#FBC56D"/>
</linearGradient>
<linearGradient id="paint12_linear_10_512" x1="33.2694" y1="14.728" x2="35.2936" y2="12.7037" gradientUnits="userSpaceOnUse">
<stop stop-color="#FEF0AE"/>
<stop offset="1" stop-color="#FBC56D"/>
</linearGradient>
<linearGradient id="paint13_linear_10_512" x1="37.7403" y1="10.2565" x2="40.2038" y2="7.79294" gradientUnits="userSpaceOnUse">
<stop stop-color="#FEF0AE"/>
<stop offset="1" stop-color="#FBC56D"/>
</linearGradient>
<clipPath id="clip0_10_512">
<rect width="48" height="48" fill="white"/>
</clipPath>
</defs>
</svg>
