<svg width="48" height="48" viewBox="0 0 48 48" fill="none" xmlns="http://www.w3.org/2000/svg">
<g id="google-maps 1" clip-path="url(#clip0_10_490)">
<g id="Group">
<path id="Vector" d="M44.2193 20.1474C44.0283 8.91305 35.2106 0.268718 23.9747 0.282365C12.7117 0.296106 3.89248 9.02825 3.77954 20.2939C3.7466 23.5798 4.20438 26.6894 5.54678 29.4522C7.385 33.2355 10.3525 36.3685 14.0111 38.4133C14.4498 38.6586 14.8787 38.9193 15.2967 39.1951C17.3969 40.581 19.2224 42.0651 20.642 44.1538L22.5384 46.9437C23.2399 47.9757 24.7609 47.9757 25.4625 46.9437L27.4462 44.0253C29.1045 41.5856 31.3352 39.6006 33.9161 38.172C40.3267 34.6235 44.3533 28.0241 44.2193 20.1474Z" fill="url(#paint0_linear_10_490)"/>
<path id="Vector_2" d="M24.0001 35.0188C32.0163 35.0188 38.5147 28.5205 38.5147 20.5043C38.5147 12.4881 32.0163 5.98975 24.0001 5.98975C15.984 5.98975 9.4856 12.4881 9.4856 20.5043C9.4856 28.5205 15.984 35.0188 24.0001 35.0188Z" fill="url(#paint1_linear_10_490)"/>
<g id="Group_2">
<path id="Vector_3" d="M42.6209 11.8721L37.964 16.529L32.1202 22.3728L22.3734 12.6259L28.348 6.65135L32.9588 2.04053C33.8953 2.49229 34.7913 3.01465 35.6412 3.59912C37.7042 5.01747 39.4915 6.80476 40.9108 8.86876C41.5612 9.81465 42.1344 10.8189 42.6209 11.8721Z" fill="url(#paint2_linear_10_490)"/>
<path id="Vector_4" d="M37.9639 16.529L32.1201 22.3728L22.3733 12.626L28.3479 6.65137C32.9908 8.10831 36.6303 11.8335 37.9639 16.529Z" fill="url(#paint3_linear_10_490)"/>
</g>
<g id="Group_3">
<path id="Vector_5" d="M15.7322 19.2668L10.1473 24.8517L5.54679 29.4522C4.20373 26.6898 3.46396 23.5793 3.4969 20.2936C3.53455 16.5016 4.59149 12.9647 6.40608 9.94067L15.7322 19.2668Z" fill="url(#paint4_linear_10_490)"/>
<path id="Vector_6" d="M15.7322 19.2668L10.1472 24.8518C9.71712 23.4786 9.4856 22.0188 9.4856 20.5045C9.4856 18.3144 9.97124 16.2362 10.839 14.3737L15.7322 19.2668Z" fill="url(#paint5_linear_10_490)"/>
</g>
<g id="Group_4">
<path id="Vector_7" d="M32.9586 2.03954L28.3468 6.65131L15.7322 19.2668L6.40515 9.93978C8.83245 5.89554 12.615 2.76707 17.1308 1.17178C19.2701 0.416014 21.5732 0.00283797 23.975 1.44452e-05C27.1986 -0.00375026 30.247 0.728485 32.9586 2.03954Z" fill="url(#paint6_linear_10_490)"/>
<path id="Vector_8" d="M28.347 6.65139L15.7324 19.2669L10.8392 14.3737C12.8929 9.97657 17.0839 6.77751 22.0759 6.1168C22.7056 6.03304 23.3484 5.98975 24.0006 5.98975C25.515 5.98975 26.9748 6.22128 28.347 6.65139Z" fill="url(#paint7_linear_10_490)"/>
</g>
<g id="Group_5">
<path id="Vector_9" d="M25.4626 47.2261L27.4463 44.3077C29.1047 41.868 31.3353 39.8829 33.9162 38.4543C40.3269 34.9059 44.6358 28.0241 44.5018 20.1474C44.4515 17.1885 43.7826 14.39 42.6199 11.8726L15.2959 39.1967C17.3961 40.5826 19.2225 42.3477 20.6423 44.4362L22.5386 47.2262C23.2401 48.2581 24.7611 48.2581 25.4626 47.2261Z" fill="url(#paint8_linear_10_490)"/>
<path id="Vector_10" d="M24.0009 35.0188C32.0171 35.0188 38.5154 28.5205 38.5154 20.5043C38.5154 19.1257 38.3232 17.7921 37.9642 16.5286L20.0251 34.4676C21.2886 34.8266 22.6222 35.0188 24.0009 35.0188Z" fill="url(#paint9_linear_10_490)"/>
</g>
<path id="Vector_11" d="M24.0007 31.5954C30.1261 31.5954 35.0917 26.6297 35.0917 20.5043C35.0917 14.3789 30.1261 9.41333 24.0007 9.41333C17.8753 9.41333 12.9097 14.3789 12.9097 20.5043C12.9097 26.6297 17.8753 31.5954 24.0007 31.5954Z" fill="url(#paint10_linear_10_490)"/>
</g>
</g>
<defs>
<linearGradient id="paint0_linear_10_490" x1="19.1914" y1="15.8199" x2="35.3527" y2="31.9811" gradientUnits="userSpaceOnUse">
<stop stop-color="#FFD833"/>
<stop offset="1" stop-color="#F2B631"/>
</linearGradient>
<linearGradient id="paint1_linear_10_490" x1="29.4186" y1="25.9227" x2="17.573" y2="14.0772" gradientUnits="userSpaceOnUse">
<stop stop-color="#FFD833"/>
<stop offset="1" stop-color="#F2B631"/>
</linearGradient>
<linearGradient id="paint2_linear_10_490" x1="30.9086" y1="9.7721" x2="37.9981" y2="16.8616" gradientUnits="userSpaceOnUse">
<stop stop-color="#4166BF"/>
<stop offset="1" stop-color="#4256AC"/>
</linearGradient>
<linearGradient id="paint3_linear_10_490" x1="33.7239" y1="16.8388" x2="24.9702" y2="8.08506" gradientUnits="userSpaceOnUse">
<stop stop-color="#4166BF"/>
<stop offset="1" stop-color="#4256AC"/>
</linearGradient>
<linearGradient id="paint4_linear_10_490" x1="3.3049" y1="17.0249" x2="13.5629" y2="27.283" gradientUnits="userSpaceOnUse">
<stop stop-color="#FF637B"/>
<stop offset="1" stop-color="#F90217"/>
</linearGradient>
<linearGradient id="paint5_linear_10_490" x1="13.4169" y1="22.5365" x2="7.11025" y2="16.2299" gradientUnits="userSpaceOnUse">
<stop stop-color="#FF637B"/>
<stop offset="1" stop-color="#F90217"/>
</linearGradient>
<linearGradient id="paint6_linear_10_490" x1="13.634" y1="-0.0581507" x2="26.4392" y2="12.7471" gradientUnits="userSpaceOnUse">
<stop stop-color="#7FAEF4"/>
<stop offset="1" stop-color="#4C8DF1"/>
</linearGradient>
<linearGradient id="paint7_linear_10_490" x1="22.1278" y1="13.0473" x2="17.1687" y2="8.08829" gradientUnits="userSpaceOnUse">
<stop stop-color="#7FAEF4"/>
<stop offset="1" stop-color="#4C8DF1"/>
</linearGradient>
<linearGradient id="paint8_linear_10_490" x1="29.4671" y1="26.4599" x2="38.7735" y2="35.7664" gradientUnits="userSpaceOnUse">
<stop stop-color="#28A265"/>
<stop offset="1" stop-color="#28895E"/>
</linearGradient>
<linearGradient id="paint9_linear_10_490" x1="35.7821" y1="32.2856" x2="27.9858" y2="24.4892" gradientUnits="userSpaceOnUse">
<stop stop-color="#28A265"/>
<stop offset="1" stop-color="#28895E"/>
</linearGradient>
<linearGradient id="paint10_linear_10_490" x1="22.1591" y1="18.6628" x2="30.2938" y2="26.7975" gradientUnits="userSpaceOnUse">
<stop stop-color="#EBEFF0"/>
<stop offset="1" stop-color="#CBD0E4"/>
</linearGradient>
<clipPath id="clip0_10_490">
<rect width="48" height="48" fill="white"/>
</clipPath>
</defs>
</svg>
